<?xml version="1.0" encoding="UTF-8" standalone="no"?>
<!-- Generator: Adobe Illustrator 18.1.0, SVG Export Plug-In . SVG Version: 6.00 Build 0)  -->
<!DOCTYPE svg PUBLIC "-//W3C//DTD SVG 1.1//EN" "http://www.w3.org/Graphics/SVG/1.1/DTD/svg11.dtd">
<svg id="Layer_1" xmlns="http://www.w3.org/2000/svg" xml:space="preserve" height="152.99px" viewBox="134.113 113.05 165.754 152.992" width="165.75px" version="1.1" y="0px" x="0px" xmlns:xlink="http://www.w3.org/1999/xlink" enable-background="new 134.113 113.05 165.754 152.992">
<polygon stroke-linejoin="round" stroke="#fff" stroke-linecap="round" stroke-miterlimit="10" fill="#DD4814" points="299.09 189.55 299.02 218.02 217.26 265.54 217.33 237.07"/>
<polygon stroke-linejoin="round" stroke="#fff" stroke-linecap="round" stroke-miterlimit="10" fill="#DD4814" points="217.33 237.07 217.26 265.54 134.97 218.02 135.04 189.55"/>
<polygon stroke-linejoin="round" stroke="#fff" stroke-linecap="round" stroke-miterlimit="10" fill="#333" points="299.16 161.07 258.28 184.83 175.99 137.31 216.87 113.55"/>
<g enable-background="new    ">
	<polygon stroke-linejoin="round" stroke="#fff" stroke-linecap="round" stroke-miterlimit="10" fill="#333" points="299.37 161.18 299.26 189.65 258.38 213.41 258.49 184.93"/>
</g>
<g enable-background="new    ">
		<polygon id="SVGID_1_" points="258.28 184.83 258.21 213.31 175.92 165.79 175.99 137.31" fill="#333"/>
		<defs>
			<polygon id="SVGID_4_" points="258.28 184.83 258.21 213.31 175.92 165.79 175.99 137.31"/>
		</defs>
		<clipPath id="SVGID_6_">
			<use overflow="visible" xlink:href="#SVGID_4_"/>
		</clipPath>
		<polygon stroke="#fff" fill="#333" stroke-miterlimit="10" points="258.28 184.83 258.21 213.31 175.92 165.79 175.99 137.31" clip-path="url(#SVGID_6_)"/>
		<polygon id="SVGID_2_" stroke="#fff" points="258.28 184.83 258.21 213.31 175.92 165.79 175.99 137.31" stroke-miterlimit="10" fill="none"/>
</g>
<polygon stroke-linejoin="round" stroke="#fff" stroke-linecap="round" stroke-miterlimit="10" fill="#888" points="258.24 199.05 217.36 222.81 135.08 175.33 175.96 151.57"/>
<polygon stroke-linejoin="round" stroke="#fff" stroke-linecap="round" stroke-miterlimit="10" fill="#888" points="217.36 222.81 217.33 237.07 135.04 189.55 135.08 175.33"/>
<polygon stroke-linejoin="round" stroke="#fff" stroke-linecap="round" stroke-miterlimit="10" fill="#888" points="258.24 199.05 258.21 213.31 217.33 237.07 217.36 222.81"/>
<polygon stroke-linejoin="round" stroke="#fff" stroke-linecap="round" stroke-miterlimit="10" fill="#2C001E" points="216.8 161.14 216.77 175.33 176.06 198.98 176.1 184.79"/>
<polygon points="216.8 161.14 176.1 184.79 135.11 161.14 175.99 137.31" fill="#CDCDCD"/>
<polygon points="176.1 184.79 176.06 198.98 135.08 175.33 135.11 161.14" fill="#CDCDCD"/>
<polygon points="216.8 161.14 216.77 175.33 176.06 198.98 176.1 184.79" fill="#CDCDCD"/>
	<g enable-background="new    ">
			<defs>
				<polygon id="SVGID_8_" points="216.8 175.33 176.06 198.98 135.11 175.33 175.99 151.57"/>
			</defs>
			<clipPath id="SVGID_10_">
				<use overflow="visible" xlink:href="#SVGID_8_"/>
			</clipPath>
			<polygon stroke="#fff" fill="none" stroke-miterlimit="10" points="216.8 175.33 176.1 198.98 135.11 175.33 175.99 151.57" clip-path="url(#SVGID_10_)"/>
			<polygon id="SVGID_3_" stroke="#fff" points="216.8 175.33 176.06 198.98 135.11 175.33 175.99 151.57" stroke-miterlimit="10" fill="none"/>
	</g>
	<g enable-background="new    ">
			<defs>
				<polygon id="SVGID_12_" points="216.84 161.14 176.13 184.79 135.15 161.14 176.03 137.31"/>
			</defs>
			<clipPath id="SVGID_13_">
				<use overflow="visible" xlink:href="#SVGID_12_"/>
			</clipPath>
			<polygon stroke="#fff" fill="none" stroke-miterlimit="10" points="216.84 161.14 176.13 184.79 135.15 161.14 176.03 137.31" clip-path="url(#SVGID_13_)"/>
			<polygon id="SVGID_5_" stroke="#fff" points="216.84 161.14 176.13 184.79 135.15 161.14 176.03 137.31" stroke-miterlimit="10" fill="none"/>
	</g>
	<g enable-background="new    ">
			<defs>
				<polygon id="SVGID_14_" points="176.13 184.79 176.06 198.98 135.11 175.33 135.15 161.14"/>
			</defs>
			<clipPath id="SVGID_15_">
				<use overflow="visible" xlink:href="#SVGID_14_"/>
			</clipPath>
			<polygon stroke="#fff" fill="none" stroke-miterlimit="10" points="176.13 184.79 176.1 198.98 135.11 175.33 135.15 161.14" clip-path="url(#SVGID_15_)"/>
			<polygon id="SVGID_7_" stroke="#fff" points="176.13 184.79 176.06 198.98 135.11 175.33 135.15 161.14" stroke-miterlimit="10" fill="none"/>
	</g>
	<g enable-background="new    ">
			<defs>
				<polygon id="SVGID_16_" points="135.15 161.14 176.03 137.31 175.99 151.57 135.11 175.33"/>
			</defs>
			<clipPath id="SVGID_17_">
				<use overflow="visible" xlink:href="#SVGID_16_"/>
			</clipPath>
			<polygon stroke="#fff" fill="none" stroke-miterlimit="10" points="135.15 161.14 176.03 137.31 175.99 151.57 135.11 175.33" clip-path="url(#SVGID_17_)"/>
			<polygon id="SVGID_9_" stroke="#fff" points="135.15 161.14 176.03 137.31 175.99 151.57 135.11 175.33" stroke-miterlimit="10" fill="none"/>
	</g>
	<g enable-background="new    ">
			<defs>
				<polygon id="SVGID_18_" points="176.03 137.31 216.84 161.14 216.8 175.33 175.99 151.57"/>
			</defs>
			<clipPath id="SVGID_19_">
				<use overflow="visible" xlink:href="#SVGID_18_"/>
			</clipPath>
			<polygon stroke="#fff" fill="none" stroke-miterlimit="10" points="176.03 137.31 216.84 161.14 216.8 175.33 175.82 151.67" clip-path="url(#SVGID_19_)"/>
			<polygon id="SVGID_11_" stroke="#fff" points="176.03 137.31 216.84 161.14 216.8 175.33 175.99 151.57" stroke-miterlimit="10" fill="none"/>
	</g>
</svg>